<svg xmlns="http://www.w3.org/2000/svg" xml:space="preserve" viewBox="0 0 1080 1080"><rect width="100%" height="100%" fill="transparent"/><path d="M898 571c-7 72-33 136-80 194-5 5-5 9 0 13l32 31c13 13 13 32 2 43a30 30 0 0 1-43-2l-29-30c-6-7-10-5-15-2-54 44-120 71-189 78-7 2-9 4-9 11v45c0 16-13 29-28 29-17 0-28-13-28-29v-45c0-7-2-9-9-11-72-7-135-33-190-79-4-4-8-2-12 1l-31 32c-13 13-31 13-43 2-11-11-11-30 2-43l32-31c5-4 5-8 0-13-44-54-71-120-78-189-2-5-4-9-11-9h-43c-18 0-31-13-31-28 0-17 13-28 31-28h45c5 0 7-2 9-9 7-70 33-135 80-190 3-4 1-8-2-12l-32-31c-13-13-13-31-2-43 13-11 30-11 43 2l31 32c4 3 8 5 12 0 51-41 109-65 172-76l18-2c7 0 9-4 9-9v-46c0-17 11-30 28-30s28 13 28 30v46c0 5 2 7 9 9 70 7 135 33 191 80 3 3 7 1 11-2l31-32c13-13 32-13 43-2 11 12 11 30-2 43l-32 31c-3 4-5 8 0 13 41 50 65 108 76 171l2 18c0 7 4 9 9 9h47c16 0 29 11 29 28s-13 28-29 28h-43c-4 0-7 0-11 4M776 352c-4-5-8-2-11 2L650 469c-11 9-15 18-7 31 3 8 7 11 14 11h167c15 0 17-2 15-16l-2-2c-7-52-28-98-61-141M511 702v-33c2-15-2-24-18-30-8-2-11-2-17 4L354 765c-5 5-4 9 2 15 45 33 99 54 155 59V702m174 24-74-76c-11-11-18-17-33-7-7 3-11 7-11 14v173l2 9c39 3 138-39 161-69l-45-44M567 324v84c0 15 2 27 18 31 8 2 11 2 17-4l120-120 8-9-24-19c-37-24-78-40-123-48-14-1-16 0-16 15v70m-206-29-5 4c-7 5-7 9-2 14l6 6 107 107c11 13 20 19 37 8 4-2 7-4 7-11V249c0-8-3-10-11-10-50 8-96 24-139 56M241 489c-3 20-3 22 17 22h152c14 0 24-3 29-18 2-8 2-11-4-17L323 363c-19-18-15-20-30 2-26 37-44 78-52 124m583 150c7-20 11-39 15-59 0-11 0-13-13-13H670c-16 0-27 4-31 20-2 6-2 9 2 13l124 124c5 6 9 6 13 0 20-26 35-54 46-85m-561 24c12 24 24 46 43 67l11-10 111-109c9-11 17-18 7-33-3-7-7-11-14-11H254c-15 0-16 2-15 18 6 26 13 52 24 78m319-91c20-27 13-55-8-74-15-14-39-16-59-7a52 52 0 0 0-30 50c2 24 13 41 37 50 24 7 43 0 60-19z" opacity=".10"/><path fill="#a1370c" fill-rule="evenodd" d="M423 328c-17-9-38 3-38 23v373c0 20 21 32 38 23l356-187c19-9 19-36 0-46L423 328Zm-89 23c0-59 62-96 114-69l355 186a78 78 0 0 1 0 138L448 793a78 78 0 0 1-114-69V351Z" opacity=".15"/></svg>